<svg xmlns="http://www.w3.org/2000/svg" xml:space="preserve" height="48" width="48"><path d="m32.627 18.886-6.95 6.951v-1.956l-.001-10.172a1.669 1.669 0 0 0-1.674-1.674c-.925 0-1.676.75-1.675 1.674v12.128l-6.951-6.95a1.668 1.668 0 0 0-1.184-.49 1.674 1.674 0 0 0-1.185 2.858l9.279 9.28a2.43 2.43 0 0 0 3.43 0l9.279-9.28a1.674 1.674 0 1 0-2.368-2.369zM33.811 32.858H21.612l-7.424.001a1.663 1.663 0 0 0-1.184.49 1.674 1.674 0 0 0 1.184 2.859H33.81c.462.001.88-.186 1.184-.49a1.674 1.674 0 0 0-1.183-2.86z"/></svg>