<svg xmlns="http://www.w3.org/2000/svg" width="48" height="48" xml:space="preserve"><path d="M40.015 25.797H30.86a2.427 2.427 0 0 0-2.424 2.426v7.992a1.674 1.674 0 0 0 3.349 0v-7.068h8.23a1.676 1.676 0 1 0 0-3.35zM17.137 25.787H8.021a1.675 1.675 0 0 0 0 3.35h8.19v7.107a1.672 1.672 0 0 0 1.674 1.674c.926 0 1.676-.75 1.676-1.674v-8.033a2.426 2.426 0 0 0-2.424-2.424zM7.976 22.227h9.154a2.427 2.427 0 0 0 2.425-2.424v-7.992a1.675 1.675 0 1 0-3.35 0v7.066H7.976A1.672 1.672 0 0 0 6.3 20.553c0 .924.75 1.674 1.676 1.674zM30.91 22.213h9.115a1.675 1.675 0 0 0 0-3.35h-8.19v-7.107a1.672 1.672 0 0 0-1.674-1.674c-.926 0-1.676.748-1.676 1.674v8.033a2.428 2.428 0 0 0 2.425 2.424z"/></svg>