<svg xmlns="http://www.w3.org/2000/svg" width="48" height="48" xml:space="preserve"><path d="M24 19.035a4.938 4.938 0 0 0-3.511 1.454c-.938.938-1.454 2.185-1.454 3.511s.517 2.573 1.454 3.511c.938.938 2.185 1.454 3.511 1.454s2.573-.517 3.511-1.454 1.454-2.185 1.454-3.511-.517-2.573-1.454-3.511-2.185-1.454-3.511-1.454zm0 7.295c-1.285 0-2.33-1.046-2.33-2.33s1.045-2.329 2.33-2.329 2.33 1.045 2.33 2.329-1.045 2.33-2.33 2.33z"/><path d="m36.721 26.463-1.312-.757a11.665 11.665 0 0 0 .017-3.299l1.348-.778a1.908 1.908 0 0 0 .697-2.605l-2.373-4.109a1.906 1.906 0 0 0-2.604-.698l-1.312.757a11.6 11.6 0 0 0-2.691-1.6c-.053-.022-.104-.044-.157-.064v-1.556a1.909 1.909 0 0 0-1.907-1.907H21.68a1.908 1.908 0 0 0-1.906 1.907v1.513c-.088.035-.176.07-.264.107-.936.396-1.807.908-2.602 1.529l-1.348-.778a1.908 1.908 0 0 0-2.605.698l-2.373 4.109a1.91 1.91 0 0 0 .698 2.605l1.312.757a11.71 11.71 0 0 0-.018 3.299l-1.348.778a1.909 1.909 0 0 0-.697 2.605l2.373 4.109a1.907 1.907 0 0 0 2.605.698l1.312-.757c.819.652 1.72 1.188 2.69 1.6.053.022.105.044.157.064v1.556c0 1.052.855 1.907 1.907 1.907h4.746a1.91 1.91 0 0 0 1.907-1.907v-1.513a11.488 11.488 0 0 0 2.865-1.636l1.348.778c.911.526 2.08.213 2.605-.698l2.373-4.109a1.908 1.908 0 0 0-.696-2.605zm-3.823-2.597V24a8.822 8.822 0 0 1-.52 2.999l2.313 1.335.08.047-.482.837c-.188.371-.396.731-.623 1.078l-.539.934-.096-.055-2.318-1.339a8.994 8.994 0 0 1-2.485 1.993 8.86 8.86 0 0 1-2.636.927V35.52h-1.005a11.44 11.44 0 0 1-1.173 0h-1.111v-2.784a8.874 8.874 0 0 1-2.969-1.161 8.98 8.98 0 0 1-2.117-1.821l-2.314 1.337-.082.048-.486-.842a11.438 11.438 0 0 1-.623-1.079l-.535-.929.094-.054 2.316-1.338a8.82 8.82 0 0 1-.483-2.764l-.001-.134a8.85 8.85 0 0 1 .52-2.999l-2.313-1.335-.08-.047.482-.837c.188-.371.396-.73.623-1.078l.539-.935.096.056 2.318 1.339a8.994 8.994 0 0 1 2.486-1.993 8.844 8.844 0 0 1 2.635-.927V12.48h1.006a11.372 11.372 0 0 1 1.173 0h1.11v2.783a8.874 8.874 0 0 1 2.969 1.161 8.979 8.979 0 0 1 2.117 1.82l2.314-1.336.082-.048.486.843c.227.348.435.707.623 1.078l.536.929-.094.054-2.317 1.338c.301.87.47 1.798.484 2.764z"/></svg>