<svg xmlns="http://www.w3.org/2000/svg" width="48" height="48" xml:space="preserve"><path d="M-21.559-142.543h-14.883c-.723 0-1.385.314-1.818.863a2.293 2.293 0 0 0-.416 1.97l4 16.733c.137.566.473 1.085.949 1.461a2.671 2.671 0 0 0 1.641.582h6.172c.583 0 1.166-.207 1.642-.582.476-.376.813-.895.948-1.461l4.002-16.733a2.294 2.294 0 0 0-.418-1.97 2.294 2.294 0 0 0-1.819-.863zm-4.934 18.212h-5.013l-3.543-14.816h12.098l-3.542 14.816zM-37.201-144.073h16.403a1.698 1.698 0 0 0 0-3.397h-2.413a1.695 1.695 0 0 0-1.688-1.596h-8.202c-.903 0-1.634.707-1.688 1.596h-2.413a1.7 1.7 0 1 0 .001 3.397zM34.418-144.801a4.186 4.186 0 0 0-4.182-4.182 4.186 4.186 0 0 0-4.181 4.182c0 1.654.966 3.088 2.364 3.765-.014.227-.032.46-.06.697-.237 2.042-.97 3.447-2.177 4.179a7.085 7.085 0 0 0-2.184 2.085 7.086 7.086 0 0 0-2.184-2.085c-1.207-.731-1.939-2.137-2.177-4.179a11.652 11.652 0 0 1-.06-.697 4.185 4.185 0 0 0 2.364-3.765c0-2.306-1.876-4.182-4.182-4.182s-4.181 1.876-4.181 4.182c0 1.75 1.08 3.252 2.61 3.875.014.285.036.581.069.884.344 3.14 1.657 5.484 3.799 6.781 1.19.722 1.936 2.152 2.218 4.253a4.188 4.188 0 0 0-2.46 3.811 4.186 4.186 0 0 0 4.182 4.181 4.186 4.186 0 0 0 4.182-4.181 4.19 4.19 0 0 0-2.46-3.811c.281-2.101 1.026-3.531 2.218-4.253 2.141-1.297 3.455-3.642 3.799-6.781.033-.303.056-.599.069-.884a4.187 4.187 0 0 0 2.614-3.875zm-16.695-1.721a1.722 1.722 0 1 1-.001 3.443 1.722 1.722 0 0 1 .001-3.443zm6.236 23.045a1.722 1.722 0 1 1 .001-3.443 1.722 1.722 0 0 1-.001 3.443zm6.238-19.604a1.722 1.722 0 1 1-.002-3.44 1.722 1.722 0 0 1 .002 3.44zM77-139.965a4.938 4.938 0 0 0-3.511 1.454c-.938.938-1.454 2.185-1.454 3.511s.517 2.573 1.454 3.511c.938.938 2.185 1.454 3.511 1.454s2.573-.517 3.511-1.454 1.454-2.185 1.454-3.511-.517-2.573-1.454-3.511-2.185-1.454-3.511-1.454zm0 7.295c-1.285 0-2.33-1.046-2.33-2.33s1.045-2.329 2.33-2.329 2.33 1.045 2.33 2.329-1.045 2.33-2.33 2.33z"/><path d="m89.721-132.537-1.312-.757a11.665 11.665 0 0 0 .017-3.299l1.348-.778a1.908 1.908 0 0 0 .697-2.605l-2.373-4.109a1.906 1.906 0 0 0-2.604-.698l-1.312.757a11.6 11.6 0 0 0-2.691-1.6c-.053-.022-.104-.044-.157-.064v-1.556a1.909 1.909 0 0 0-1.907-1.907H74.68a1.908 1.908 0 0 0-1.906 1.907v1.513c-.088.035-.176.07-.264.107-.936.396-1.807.908-2.602 1.529l-1.348-.778a1.908 1.908 0 0 0-2.605.698l-2.373 4.109a1.91 1.91 0 0 0 .698 2.605l1.312.757a11.71 11.71 0 0 0-.018 3.299l-1.348.778a1.909 1.909 0 0 0-.697 2.605l2.373 4.109a1.907 1.907 0 0 0 2.605.698l1.312-.757c.819.652 1.72 1.188 2.69 1.6.053.022.105.044.157.064v1.556c0 1.052.855 1.907 1.907 1.907h4.746a1.91 1.91 0 0 0 1.907-1.907v-1.513a11.488 11.488 0 0 0 2.865-1.636l1.348.778c.911.526 2.08.213 2.605-.698l2.373-4.109a1.908 1.908 0 0 0-.696-2.605zm-3.823-2.597v.134a8.822 8.822 0 0 1-.52 2.999l2.313 1.335.08.047-.482.837c-.188.371-.396.731-.623 1.078l-.539.934-.096-.055-2.318-1.339a8.994 8.994 0 0 1-2.485 1.993 8.86 8.86 0 0 1-2.636.927V-123.48h-1.005a11.44 11.44 0 0 1-1.173 0h-1.111v-2.783a8.874 8.874 0 0 1-2.969-1.161 8.98 8.98 0 0 1-2.117-1.821l-2.314 1.337-.082.048-.486-.842a11.438 11.438 0 0 1-.623-1.079l-.535-.929.094-.054 2.316-1.338a8.82 8.82 0 0 1-.483-2.764l-.001-.134a8.85 8.85 0 0 1 .52-2.999l-2.313-1.335-.08-.047.482-.837c.188-.371.396-.73.623-1.078l.539-.935.096.056 2.318 1.339a8.994 8.994 0 0 1 2.486-1.993 8.844 8.844 0 0 1 2.635-.927V-146.52h1.006a11.372 11.372 0 0 1 1.173 0h1.11v2.783a8.874 8.874 0 0 1 2.969 1.161 8.979 8.979 0 0 1 2.117 1.82l2.314-1.336.082-.048.486.843c.227.348.435.707.623 1.078l.536.929-.094.054-2.317 1.338c.301.87.47 1.798.484 2.764zM-65.985-27.203h-9.155a2.427 2.427 0 0 0-2.424 2.426v7.992a1.674 1.674 0 0 0 3.349 0v-7.068h8.23a1.676 1.676 0 1 0 0-3.35zM-88.863-27.213h-9.115a1.675 1.675 0 0 0 0 3.35h8.19v7.107a1.672 1.672 0 0 0 1.674 1.674c.926 0 1.676-.75 1.676-1.674v-8.033a2.428 2.428 0 0 0-2.425-2.424zM-98.024-30.773h9.154a2.427 2.427 0 0 0 2.425-2.424v-7.992a1.675 1.675 0 1 0-3.35 0v7.066h-8.229a1.672 1.672 0 0 0-1.676 1.676c0 .924.75 1.674 1.676 1.674zM-75.09-30.787h9.115a1.675 1.675 0 0 0 0-3.35h-8.19v-7.107a1.672 1.672 0 0 0-1.674-1.674c-.926 0-1.676.748-1.676 1.674v8.033a2.428 2.428 0 0 0 2.425 2.424zM70.869-95.911h-9.154a2.428 2.428 0 0 0-2.426 2.424v7.897a1.675 1.675 0 0 0 3.35 0v-6.972h8.23c.463 0 .881-.188 1.184-.491a1.675 1.675 0 0 0-1.184-2.858zM92.285-95.931H83.17c-.926 0-1.674.75-1.674 1.675s.748 1.675 1.674 1.675h8.189v7.013c0 .462.188.881.492 1.184a1.675 1.675 0 0 0 2.858-1.184v-7.938a2.426 2.426 0 0 0-2.424-2.425zM93.035-79.781c-.926 0-1.676.75-1.676 1.675v6.668h-8.23a1.675 1.675 0 1 0 .002 3.35h9.154a2.426 2.426 0 0 0 2.424-2.425v-7.593c0-.925-.75-1.675-1.674-1.675zM70.83-71.418h-8.191v-6.708a1.674 1.674 0 0 0-1.674-1.675c-.926 0-1.676.75-1.676 1.675v7.634a2.428 2.428 0 0 0 2.426 2.424h9.115a1.675 1.675 0 0 0 0-3.35zM-13.714-42.932h-14.727a1.8 1.8 0 0 0-.246.021h-15.598a2.426 2.426 0 0 0-2.424 2.424v22.994a2.427 2.427 0 0 0 2.424 2.424h21.708c.084 0 .166-.008.246-.02h8.618a2.428 2.428 0 0 0 2.424-2.426v-22.992a2.43 2.43 0 0 0-2.425-2.425zM-43.36-25.158V-39.56h15.812a1.8 1.8 0 0 0 .246-.021h12.663v9.314H-28.5a2.428 2.428 0 0 0-2.424 2.424v9.426H-43.36v-6.741zm28.72 6.72h-8.23c-.083 0-.165.008-.246.02h-4.459v-8.5h12.935v8.48zM39.286-42.932H24.559a1.8 1.8 0 0 0-.246.021H8.715a2.426 2.426 0 0 0-2.424 2.424v22.994a2.427 2.427 0 0 0 2.424 2.424h21.707c.084 0 .166-.008.246-.02h8.618a2.427 2.427 0 0 0 2.424-2.426v-22.992a2.427 2.427 0 0 0-2.424-2.425zM9.64-25.156V-39.56h12.437v21.143H9.64v-6.739zm28.721 6.718h-8.23c-.084 0-.166.008-.246.02h-4.459v-21.143h.026c.083 0 .165-.01.245-.021h12.664v21.144zM-31.431 29.113l7.991-4.613c.233-.135.349-.312.354-.488-.005-.177-.121-.354-.354-.488l-7.991-4.613c-.477-.275-.866-.05-.866.5v9.203c0 .549.39.775.866.499zM22.545 18.623c0-.275-.225-.5-.5-.5h-1.91c-.275 0-.5.225-.5.5v10.754c0 .275.225.5.5.5h1.91c.275 0 .5-.225.5-.5V18.623zM28.365 18.623c0-.275-.225-.5-.5-.5h-1.91c-.275 0-.5.225-.5.5v10.754c0 .275.225.5.5.5h1.91c.275 0 .5-.225.5-.5V18.623zM-71.006-131.435l-8.625-8.626-.654-.654a2.43 2.43 0 0 0-3.43 0l-.654.654-8.625 8.626a1.674 1.674 0 1 0 2.369 2.368l8.625-8.625 1.433 1.433 7.192 7.192c.327.327.755.49 1.184.49s.857-.163 1.185-.49a1.674 1.674 0 0 0 0-2.368z"/><path fill="none" stroke="#000" stroke-width="3.4" stroke-linecap="round" stroke-miterlimit="10" d="M-79.25-86.875s-16.548 1.451-18.625 15"/><path fill="none" stroke="#000" stroke-width="3.4" stroke-linecap="round" stroke-miterlimit="10" d="M-79.25-76.938s-11.083-1.896-18.625 5.063M-79.25-86.875v-5.208M-79.25-71.875l13-10.125M-79.25-92.083l13 10.083M-79.25-76.938v5.063"/><path d="m15.375-81.608 6.95-6.951v1.956l.001 10.172A1.669 1.669 0 0 0 24-74.757c.925 0 1.676-.75 1.675-1.674V-88.56l6.951 6.951c.327.327.755.49 1.184.49s.857-.163 1.185-.49a1.674 1.674 0 0 0 0-2.368l-9.279-9.28a2.43 2.43 0 0 0-3.43 0l-9.279 9.28a1.674 1.674 0 0 0 2.368 2.369zM33.811-73.142H21.612l-7.424.001a1.663 1.663 0 0 0-1.184.49 1.674 1.674 0 0 0 1.184 2.859H33.81c.462.001.88-.186 1.184-.49a1.674 1.674 0 0 0-1.183-2.86zM24 39.854c-2.143 0-4.22-.42-6.173-1.248a15.819 15.819 0 0 1-5.038-3.394 15.854 15.854 0 0 1-3.397-5.039C8.564 28.217 8.146 26.141 8.146 24s.419-4.217 1.246-6.172a15.824 15.824 0 0 1 3.396-5.038 15.773 15.773 0 0 1 5.04-3.396 15.957 15.957 0 0 1 12.344 0c1.891.8 3.586 1.942 5.039 3.397a15.793 15.793 0 0 1 3.396 5.037c.828 1.958 1.248 4.034 1.248 6.172s-.42 4.214-1.248 6.172a15.797 15.797 0 0 1-3.396 5.039 15.801 15.801 0 0 1-5.039 3.396A15.718 15.718 0 0 1 24 39.854zm0-28.308a12.421 12.421 0 0 0-8.808 3.649 12.442 12.442 0 0 0-2.67 3.96c-.648 1.531-.977 3.162-.977 4.846s.328 3.314.977 4.848a12.5 12.5 0 0 0 6.63 6.628 12.544 12.544 0 0 0 9.694 0 12.416 12.416 0 0 0 3.959-2.668 12.443 12.443 0 0 0 2.67-3.96c.649-1.536.979-3.167.979-4.848s-.329-3.312-.979-4.848a12.424 12.424 0 0 0-2.67-3.958 12.39 12.39 0 0 0-3.958-2.67A12.362 12.362 0 0 0 24 11.546zM-29 39.854a15.83 15.83 0 0 1-11.211-4.642 15.87 15.87 0 0 1-3.397-5.039c-.827-1.957-1.247-4.033-1.247-6.174s.419-4.217 1.246-6.172a15.827 15.827 0 0 1 3.397-5.038 15.773 15.773 0 0 1 5.04-3.396 15.957 15.957 0 0 1 12.344 0c1.891.8 3.586 1.942 5.039 3.397a15.793 15.793 0 0 1 3.396 5.037c.828 1.958 1.248 4.034 1.248 6.172s-.42 4.214-1.248 6.172a15.83 15.83 0 0 1-3.396 5.039 15.812 15.812 0 0 1-5.039 3.396A15.701 15.701 0 0 1-29 39.854zm0-28.308a12.421 12.421 0 0 0-8.808 3.649 12.383 12.383 0 0 0-3.646 8.806c0 1.684.329 3.314.977 4.848a12.497 12.497 0 0 0 6.629 6.628 12.544 12.544 0 0 0 9.694 0 12.394 12.394 0 0 0 3.959-2.668 12.424 12.424 0 0 0 3.648-8.808 12.421 12.421 0 0 0-3.648-8.806 12.38 12.38 0 0 0-3.958-2.67A12.37 12.37 0 0 0-29 11.546zM77-13.146c-2.143 0-4.22-.42-6.173-1.248a15.819 15.819 0 0 1-5.038-3.394 15.854 15.854 0 0 1-3.397-5.039c-.827-1.957-1.246-4.033-1.246-6.174s.419-4.217 1.246-6.172a15.824 15.824 0 0 1 3.396-5.038 15.773 15.773 0 0 1 5.04-3.396 15.957 15.957 0 0 1 12.344 0c1.891.8 3.586 1.942 5.039 3.397a15.793 15.793 0 0 1 3.396 5.037c.828 1.958 1.248 4.034 1.248 6.172s-.42 4.214-1.248 6.172a15.797 15.797 0 0 1-3.396 5.039 15.801 15.801 0 0 1-5.039 3.396A15.701 15.701 0 0 1 77-13.146zm0-28.308a12.421 12.421 0 0 0-8.808 3.649 12.442 12.442 0 0 0-2.67 3.96c-.648 1.531-.977 3.162-.977 4.846s.328 3.314.977 4.848a12.5 12.5 0 0 0 6.63 6.628 12.544 12.544 0 0 0 9.694 0 12.416 12.416 0 0 0 3.959-2.668 12.443 12.443 0 0 0 2.67-3.96c.649-1.536.979-3.167.979-4.848s-.329-3.312-.979-4.848a12.424 12.424 0 0 0-2.67-3.958 12.39 12.39 0 0 0-3.958-2.67A12.362 12.362 0 0 0 77-41.454z"/><path d="M78.715-36.896a2.432 2.432 0 0 0-3.432 0l-7.156 7.16a1.673 1.673 0 0 0 0 2.367 1.677 1.677 0 0 0 2.369.002l4.828-4.828.001 1.952.001 8.173A1.67 1.67 0 0 0 77-20.396a1.673 1.673 0 0 0 1.674-1.674l.001-10.128 4.829 4.829c.329.328.755.491 1.184.49.43 0 .859-.162 1.184-.49a1.67 1.67 0 0 0 0-2.368l-7.157-7.159zM-67.618 22.3H-80.3V9.618a1.7 1.7 0 0 0-3.4 0V22.3h-12.682a1.7 1.7 0 0 0 0 3.4H-83.7v12.682a1.7 1.7 0 0 0 3.4 0V25.7h12.682a1.7 1.7 0 0 0 0-3.4z"/></svg>