<svg xmlns="http://www.w3.org/2000/svg" width="48" height="48" xml:space="preserve"><path d="M31.441 16.457H16.559c-.723 0-1.385.314-1.818.863a2.293 2.293 0 0 0-.416 1.97l4 16.733c.137.566.473 1.085.949 1.461a2.671 2.671 0 0 0 1.641.582h6.172c.583 0 1.166-.207 1.642-.582.476-.376.813-.895.948-1.461l4.002-16.733a2.294 2.294 0 0 0-.418-1.97 2.298 2.298 0 0 0-1.82-.863zm-4.934 18.212h-5.013l-3.543-14.816h12.098l-3.542 14.816zM15.799 14.927h16.403a1.698 1.698 0 0 0 0-3.397H29.79a1.695 1.695 0 0 0-1.688-1.596H19.9c-.903 0-1.634.707-1.688 1.596h-2.413a1.7 1.7 0 0 0 0 3.397z"/></svg>