<?xml version="1.0" encoding="utf-8"?>
<!-- Generator: Adobe Illustrator 16.0.0, SVG Export Plug-In . SVG Version: 6.00 Build 0)  -->
<!DOCTYPE svg PUBLIC "-//W3C//DTD SVG 1.1//EN" "http://www.w3.org/Graphics/SVG/1.1/DTD/svg11.dtd">
<svg version="1.1" id="Layer_1" xmlns="http://www.w3.org/2000/svg" xmlns:xlink="http://www.w3.org/1999/xlink" x="0px" y="0px"
	 width="799.99px" height="800px" viewBox="0 0 799.99 800" enable-background="new 0 0 799.99 800" xml:space="preserve">
<g>
	<g>
		<rect x="386.07" y="218.09" width="56.316" height="158.729"/>
		<polygon points="183.637,143.527 117.727,143.527 315.453,376.819 362.481,376.819 362.481,363.847 362.481,143.527 
			315.453,143.527 315.453,305.91 		"/>
		<polygon points="464.35,143.527 464.35,194.876 574.811,194.876 464.35,376.819 676.299,376.819 676.299,325.459 566.457,325.459 
			676.299,143.527 		"/>
		<rect x="386.07" y="143.527" width="56.316" height="51.349"/>
	</g>
	<g>
		<path d="M656.072,470.58c0-46.319-28.953-63.051-72.053-63.051h-90.056v242.515h97.134c44.389,0,87.805-16.721,87.805-67.55
			c0-33.761-14.793-57.248-49.533-61.75v-0.646C648.992,510.123,656.072,492.438,656.072,470.58z M557.01,455.776h4.496
			c17.049,0,36.672,1.292,36.672,23.477c0,20.587-17.373,23.479-34.094,23.479h-7.074V455.776z M565.043,601.799h-8.033v-52.112
			h6.428c20.582,0,51.783-2.892,51.783,26.379C615.221,602.762,583.701,601.799,565.043,601.799z"/>
		<polygon points="0,407.529 0,650.044 63.046,650.044 63.046,501.122 63.046,407.529 		"/>
		<path d="M440.655,407.529h-42.343v127.69c0,31.516-2.25,65.933-42.777,65.933c-40.533,0-42.778-34.417-42.778-65.933v-127.69
			h-63.041v136.375c0,31.196,1.281,62.077,25.416,85.554c20.253,19.941,52.107,27.015,80.403,27.015
			c28.306,0,60.15-7.073,80.408-27.015c24.118-23.477,25.41-54.357,25.41-85.554V407.529H440.655z"/>
		<polygon points="217.1,407.529 154.07,407.529 154.07,501.122 63.046,501.122 112.58,550.659 154.07,550.659 154.07,650.044 
			217.1,650.044 		"/>
	</g>
</g>
<polygon points="0,0.005 0,376.819 68.15,376.819 68.15,68.149 731.841,68.149 731.841,731.852 68.15,731.852 68.15,680.427 
	0,680.427 0,799.995 799.99,799.995 799.99,0.005 "/>
</svg>
