<?xml version="1.0" encoding="utf-8"?>
<!-- Generator: Adobe Illustrator 16.0.0, SVG Export Plug-In . SVG Version: 6.00 Build 0)  -->
<!DOCTYPE svg PUBLIC "-//W3C//DTD SVG 1.1//EN" "http://www.w3.org/Graphics/SVG/1.1/DTD/svg11.dtd">
<svg version="1.1" id="Layer_1" xmlns="http://www.w3.org/2000/svg" xmlns:xlink="http://www.w3.org/1999/xlink" x="0px" y="0px"
	 width="1000px" height="296.754px" viewBox="0 0 1000 296.754" enable-background="new 0 0 1000 296.754" xml:space="preserve">
<g>
	<rect x="250.354" y="118.283" width="40.271" height="113.512"/>
	<path d="M925.833,108.33c0-31.865-19.918-43.371-49.565-43.371h-61.956v166.836h66.824c30.537,0,60.406-11.506,60.406-46.467
		c0-23.233-10.179-39.388-34.077-42.483v-0.441C920.963,135.542,925.833,123.374,925.833,108.33z M857.683,98.149h3.095
		c11.728,0,25.229,0.883,25.229,16.151c0,14.164-11.952,16.156-23.455,16.156h-4.868V98.149z M863.21,198.605h-5.527v-35.847h4.425
		c14.16,0,35.621-1.991,35.621,18.146C897.729,199.271,876.046,198.605,863.21,198.605z"/>
	<polygon points="105.591,64.959 58.458,64.959 199.853,231.795 233.483,231.795 233.483,222.516 233.483,64.959 199.853,64.959 
		199.853,181.085 	"/>
	<polygon points="306.331,64.959 306.331,101.686 385.324,101.686 306.331,231.795 457.902,231.795 457.902,195.064 
		379.347,195.064 457.902,64.959 	"/>
	<rect x="250.354" y="64.959" width="40.271" height="36.727"/>
	<polygon points="474.488,64.959 474.488,231.795 517.859,231.795 517.859,129.347 517.859,64.959 	"/>
	<path d="M27.48,27.481h618.799v131.293c0,21.463,0.883,42.708,17.482,58.86c13.936,13.718,35.849,18.589,55.316,18.589
		c19.475,0,41.379-4.871,55.318-18.589c16.593-16.151,17.479-37.396,17.479-58.86V64.959H748.51v87.842
		c0,21.687-1.551,45.362-29.432,45.362c-27.883,0-29.429-23.675-29.429-45.362V27.481V0h-43.37H27.48H0v27.481v241.792v27.48h27.48
		h528.015v-27.48H27.48V27.481z"/>
	<polygon points="972.52,0 714.636,0 714.636,27.481 972.52,27.481 972.52,269.273 623.845,269.273 623.845,64.959 580.48,64.959 
		580.48,129.347 517.859,129.347 551.936,163.424 580.48,163.424 580.48,269.273 580.48,296.754 623.845,296.754 972.52,296.754 
		1000,296.754 1000,269.273 1000,27.481 1000,0 	"/>
</g>
</svg>
