<?xml version="1.0" encoding="utf-8"?>
<!-- Generator: Adobe Illustrator 16.0.0, SVG Export Plug-In . SVG Version: 6.00 Build 0)  -->
<!DOCTYPE svg PUBLIC "-//W3C//DTD SVG 1.1//EN" "http://www.w3.org/Graphics/SVG/1.1/DTD/svg11.dtd">
<svg version="1.1" id="Layer_1" xmlns="http://www.w3.org/2000/svg" xmlns:xlink="http://www.w3.org/1999/xlink" x="0px" y="0px"
	 width="799.99px" height="800px" viewBox="0 0 799.99 800" enable-background="new 0 0 799.99 800" xml:space="preserve">
<g>
	<g>
		<g>
			<rect x="389.522" y="246.084" width="53.903" height="151.941"/>
			<polygon points="195.752,174.71 132.661,174.71 321.923,398.025 366.936,398.025 366.936,385.589 366.936,174.71 321.923,174.71 
				321.923,330.147 			"/>
			<polygon points="464.448,174.71 464.448,223.859 570.178,223.859 464.448,398.025 667.33,398.025 667.33,348.851 
				562.182,348.851 667.33,174.71 			"/>
			<rect x="389.522" y="174.71" width="53.903" height="49.148"/>
		</g>
		<g>
			<path d="M651.664,477.528c0-36.826-23.01-50.124-57.266-50.124h-71.584v192.771h77.205c35.283,0,69.797-13.298,69.797-53.684
				c0-26.847-11.758-45.515-39.371-49.096v-0.509C646.041,508.96,651.664,494.903,651.664,477.528z M572.926,465.751h3.572
				c13.551,0,29.152,1.025,29.152,18.666c0,16.362-13.811,18.666-27.102,18.666h-5.623V465.751z M579.314,581.829h-6.389v-41.411
				h5.109c16.363,0,41.158-2.306,41.158,20.958C619.193,582.6,594.139,581.829,579.314,581.829z"/>
			<polygon points="130.173,427.404 130.173,620.175 180.284,620.175 180.284,501.817 180.284,427.404 			"/>
			<path d="M480.442,427.404h-33.66v101.5c0,25.063-1.786,52.416-34.003,52.416s-34.002-27.354-34.002-52.416v-101.5H328.66v108.402
				c0,24.796,1.025,49.352,20.206,68.006c16.102,15.854,41.417,21.479,63.914,21.479c22.499,0,47.807-5.625,63.915-21.479
				c19.173-18.654,20.199-43.21,20.199-68.006V427.404H480.442z"/>
			<polygon points="302.743,427.404 252.639,427.404 252.639,501.817 180.284,501.817 219.656,541.177 252.639,541.177 
				252.639,620.175 302.743,620.175 			"/>
		</g>
	</g>
	<g>
		<path d="M800.002,800H-0.011V0h800.013V800z M51.386,748.61h697.22V51.39H51.386V748.61z"/>
	</g>
</g>
</svg>
