<?xml version="1.0" encoding="utf-8"?>
<!-- Generator: Adobe Illustrator 16.0.0, SVG Export Plug-In . SVG Version: 6.00 Build 0)  -->
<!DOCTYPE svg PUBLIC "-//W3C//DTD SVG 1.1//EN" "http://www.w3.org/Graphics/SVG/1.1/DTD/svg11.dtd">
<svg version="1.1" id="Layer_1" xmlns="http://www.w3.org/2000/svg" xmlns:xlink="http://www.w3.org/1999/xlink" x="0px" y="0px"
	 width="800px" height="800px" viewBox="0 0 800 800" enable-background="new 0 0 800 800" xml:space="preserve">
<g>
	<g>
		<path d="M801.988,801.981H-1.988V-1.981h803.977V801.981z M49.67,750.337h700.674V49.663H49.67V750.337z"/>
	</g>
	<g>
		<g>
			<rect x="410.98" y="148" width="62.268" height="56.785"/>
			<rect x="411.146" y="230.679" width="61.934" height="174.582"/>
			<polygon points="513.848,230.679 513.848,282.066 595.863,282.066 513.848,405.261 698.979,405.261 698.979,353.872 
				617.303,353.872 698.979,230.679 			"/>
			<polygon points="319.135,148 319.135,148.012 319.135,278.301 190.053,148.012 190.043,148 188.836,148 101.021,148.012 
				358.967,405.96 371.135,405.96 371.135,148.012 370.814,148.012 370.814,148 			"/>
		</g>
		<g>
			<polygon points="101.021,431.728 101.021,652 158.285,652 158.285,516.744 158.285,431.728 			"/>
			<path d="M525.195,431.728V652h52.889v-22.103h0.58c9.588,14.821,27.605,21.506,45.045,21.506c44.463,0,75.27-36.618,75.27-79.626
				c0-42.721-30.514-79.337-74.689-79.337c-17.146,0-34.873,6.395-46.205,19.473v-80.186H525.195z M610.344,538.357
				c21.504,0,33.998,15.401,33.998,33.708c0,18.891-12.494,33.422-33.998,33.422c-21.508,0-34.004-14.531-34.004-33.422
				C576.34,553.759,588.836,538.357,610.344,538.357z"/>
			<path d="M332.902,587.178c0,49.115,34.582,64.226,79.332,64.226c44.756,0,79.34-15.11,79.34-64.226v-84.855h-52.889v74.687
				c0,18.889-4.65,32.255-26.451,32.255c-21.793,0-26.443-13.366-26.443-32.255v-74.687h-52.889V587.178z"/>
			<polygon points="298.215,431.728 240.965,431.728 240.965,516.744 158.285,516.744 203.275,561.724 240.965,561.724 240.965,652 
				298.215,652 			"/>
		</g>
	</g>
</g>
</svg>
