<?xml version="1.0" encoding="utf-8"?>
<!-- Generator: Adobe Illustrator 16.0.0, SVG Export Plug-In . SVG Version: 6.00 Build 0)  -->
<!DOCTYPE svg PUBLIC "-//W3C//DTD SVG 1.1//EN" "http://www.w3.org/Graphics/SVG/1.1/DTD/svg11.dtd">
<svg version="1.1" id="Layer_1" xmlns="http://www.w3.org/2000/svg" xmlns:xlink="http://www.w3.org/1999/xlink" x="0px" y="0px"
	 width="800px" height="237.402px" viewBox="0 0 800 237.402" enable-background="new 0 0 800 237.402" xml:space="preserve">
<g>
	<polygon points="384.125,51.967 384.125,185.436 418.822,185.436 418.822,103.48 418.822,51.967 	"/>
	<rect x="213.938" y="51.961" width="32.218" height="29.382"/>
	<rect x="214.023" y="94.741" width="32.048" height="90.333"/>
	<path d="M641.143,51.967v133.469h32.047v-13.393h0.352c5.811,8.98,16.729,13.031,27.295,13.031
		c26.941,0,45.607-22.188,45.607-48.248c0-25.885-18.49-48.072-45.256-48.072c-10.389,0-21.131,3.875-27.998,11.799V51.967H641.143z
		 M692.736,116.576c13.031,0,20.602,9.333,20.602,20.426c0,11.445-7.57,20.25-20.602,20.25s-20.604-8.805-20.604-20.25
		C672.133,125.909,679.705,116.576,692.736,116.576z"/>
	<polygon points="267.165,94.741 267.165,121.33 309.603,121.33 267.165,185.074 362.957,185.074 362.957,158.484 320.696,158.484 
		362.957,94.741 	"/>
	<polygon points="166.416,51.961 166.416,51.967 166.416,119.382 99.624,51.967 99.619,51.961 98.995,51.961 53.557,51.967 
		187.025,185.436 193.321,185.436 193.321,51.967 193.155,51.967 193.155,51.961 	"/>
	<path d="M21.985,21.984h502.642v124.174c0,29.76,20.955,38.916,48.07,38.916c27.119,0,48.074-9.156,48.074-38.916V94.741h-32.047
		v45.255c0,11.445-2.818,19.545-16.027,19.545c-13.205,0-16.023-8.1-16.023-19.545V0H0v237.402h448.92v-21.984H21.985V21.984z"/>
	<polygon points="576.674,0 576.674,21.984 778.016,21.984 778.016,215.418 503.609,215.418 503.609,51.967 468.92,51.967 
		468.92,103.48 418.822,103.48 446.084,130.735 468.92,130.735 468.92,237.402 800,237.402 800,0 	"/>
</g>
</svg>
