<?xml version="1.0" encoding="utf-8"?>
<!-- Generator: Adobe Illustrator 16.0.0, SVG Export Plug-In . SVG Version: 6.00 Build 0)  -->
<!DOCTYPE svg PUBLIC "-//W3C//DTD SVG 1.1//EN" "http://www.w3.org/Graphics/SVG/1.1/DTD/svg11.dtd">
<svg version="1.1" id="Layer_1" xmlns="http://www.w3.org/2000/svg" xmlns:xlink="http://www.w3.org/1999/xlink" x="0px" y="0px"
	 width="799.99px" height="800px" viewBox="0 0 799.99 800" enable-background="new 0 0 799.99 800" xml:space="preserve">
<g>
	<polygon points="311.168,307.534 168.049,131.227 96.492,131.227 311.168,384.534 362.229,384.534 362.229,370.441 
		362.229,131.227 311.168,131.227 	"/>
	<polygon points="702.959,384.534 702.959,328.767 583.691,328.767 702.959,131.227 472.832,131.227 472.832,186.984 
		592.766,186.984 472.832,384.534 	"/>
	<rect x="387.843" y="131.227" width="61.141" height="55.758"/>
	<path d="M638.779,487.764c0-45.094-28.191-61.377-70.15-61.377h-87.688v236.118h94.581c43.221,0,85.492-16.283,85.492-65.769
		c0-32.876-14.404-55.739-48.23-60.121v-0.625C631.885,526.279,638.779,509.054,638.779,487.764z M542.33,473.354h4.375
		c16.602,0,35.705,1.259,35.705,22.863c0,20.04-16.918,22.865-33.191,22.865h-6.889V473.354z M550.15,615.527h-7.82v-50.734h6.258
		c20.041,0,50.418-2.813,50.418,25.688C599.006,616.479,568.316,615.527,550.15,615.527z"/>
	<path d="M387.815,550.71c0,30.684-2.191,64.193-41.651,64.193c-39.465,0-41.651-33.51-41.651-64.193V426.387h-61.383v132.775
		c0,30.379,1.254,60.447,24.748,83.303c19.719,19.407,50.734,26.304,78.287,26.304c27.562,0,58.564-6.896,78.288-26.304
		c23.484-22.855,24.742-52.924,24.742-83.303l-0.209-346.974h-61.141L387.815,550.71z"/>
	<polygon points="0,0 0,384.534 62.94,384.534 62.94,62.94 737.051,62.94 737.051,737.054 62.94,737.054 62.94,519.073 
		109.606,565.736 150.008,565.736 150.008,662.505 211.377,662.505 211.377,426.387 150.008,426.387 150.008,517.519 62.94,517.519 
		62.94,426.387 61.379,426.387 0,426.387 0,800 799.99,800 799.99,0 	"/>
</g>
</svg>
