<svg xmlns="http://www.w3.org/2000/svg" width="48" height="48" xml:space="preserve"><path d="M24 39.854c-2.143 0-4.22-.42-6.173-1.248a15.819 15.819 0 0 1-5.038-3.394 15.854 15.854 0 0 1-3.397-5.039C8.564 28.217 8.146 26.141 8.146 24s.419-4.217 1.246-6.172a15.824 15.824 0 0 1 3.396-5.038 15.773 15.773 0 0 1 5.04-3.396 15.957 15.957 0 0 1 12.344 0c1.891.8 3.586 1.942 5.039 3.397a15.793 15.793 0 0 1 3.396 5.037c.828 1.958 1.248 4.034 1.248 6.172s-.42 4.214-1.248 6.172a15.797 15.797 0 0 1-3.396 5.039 15.801 15.801 0 0 1-5.039 3.396A15.718 15.718 0 0 1 24 39.854zm0-28.308a12.421 12.421 0 0 0-8.808 3.649 12.442 12.442 0 0 0-2.67 3.96c-.648 1.531-.977 3.162-.977 4.846s.328 3.314.977 4.848a12.5 12.5 0 0 0 6.63 6.628 12.544 12.544 0 0 0 9.694 0 12.416 12.416 0 0 0 3.959-2.668 12.443 12.443 0 0 0 2.67-3.96c.649-1.536.979-3.167.979-4.848s-.329-3.312-.979-4.848a12.424 12.424 0 0 0-2.67-3.958 12.39 12.39 0 0 0-3.958-2.67A12.362 12.362 0 0 0 24 11.546z"/><path d="M25.715 16.104a2.432 2.432 0 0 0-3.432 0l-7.156 7.16a1.673 1.673 0 0 0 0 2.367 1.677 1.677 0 0 0 2.369.002l4.828-4.828.001 1.952.001 8.173A1.67 1.67 0 0 0 24 32.604a1.673 1.673 0 0 0 1.674-1.674l.001-10.128 4.829 4.829c.329.328.755.491 1.184.49.43 0 .859-.162 1.184-.49a1.67 1.67 0 0 0 0-2.368l-7.157-7.159z"/></svg>