<svg xmlns="http://www.w3.org/2000/svg" width="48" height="48" xml:space="preserve"><path d="M34.418 14.199a4.186 4.186 0 0 0-4.182-4.182 4.186 4.186 0 0 0-4.181 4.182c0 1.654.966 3.088 2.364 3.765-.014.227-.032.46-.06.697-.237 2.042-.97 3.447-2.177 4.179a7.085 7.085 0 0 0-2.184 2.085 7.086 7.086 0 0 0-2.184-2.085c-1.207-.731-1.939-2.137-2.177-4.179a11.652 11.652 0 0 1-.06-.697 4.185 4.185 0 0 0 2.364-3.765c0-2.306-1.876-4.182-4.182-4.182s-4.181 1.876-4.181 4.182c0 1.75 1.08 3.252 2.61 3.875.014.285.036.581.069.884.344 3.14 1.657 5.484 3.799 6.781 1.19.722 1.936 2.152 2.218 4.253a4.188 4.188 0 0 0-2.46 3.811 4.186 4.186 0 0 0 4.182 4.181 4.186 4.186 0 0 0 4.182-4.181 4.19 4.19 0 0 0-2.46-3.811c.281-2.101 1.026-3.531 2.218-4.253 2.141-1.297 3.455-3.642 3.799-6.781.033-.303.056-.599.069-.884a4.187 4.187 0 0 0 2.614-3.875zm-16.695-1.721a1.722 1.722 0 1 1-.001 3.443 1.722 1.722 0 0 1 .001-3.443zm6.236 23.045a1.722 1.722 0 1 1 .001-3.443 1.722 1.722 0 0 1-.001 3.443zm6.238-19.604a1.722 1.722 0 1 1-.002-3.44 1.722 1.722 0 0 1 .002 3.44z"/></svg>