<svg xmlns="http://www.w3.org/2000/svg" width="48" height="48" xml:space="preserve"><path d="M17.869 10.089H8.715a2.428 2.428 0 0 0-2.426 2.424v7.897a1.675 1.675 0 0 0 3.35 0v-6.972h8.23c.463 0 .881-.188 1.184-.491a1.675 1.675 0 0 0-1.184-2.858zM39.285 10.069H30.17c-.926 0-1.674.75-1.674 1.675s.748 1.675 1.674 1.675h8.189v7.013c0 .462.188.881.492 1.184a1.675 1.675 0 0 0 2.858-1.184v-7.938a2.426 2.426 0 0 0-2.424-2.425zM40.035 26.219c-.926 0-1.676.75-1.676 1.675v6.668h-8.23a1.675 1.675 0 1 0 .002 3.35h9.154a2.426 2.426 0 0 0 2.424-2.425v-7.593c0-.925-.75-1.675-1.674-1.675zM17.83 34.582H9.639v-6.708a1.674 1.674 0 0 0-1.674-1.675c-.926 0-1.676.75-1.676 1.675v7.634a2.428 2.428 0 0 0 2.426 2.424h9.115a1.675 1.675 0 0 0 0-3.35z"/></svg>