<svg xmlns="http://www.w3.org/2000/svg" width="48" height="48" xml:space="preserve"><path d="M39.286 10.068H24.559a1.8 1.8 0 0 0-.246.021H8.714a2.426 2.426 0 0 0-2.424 2.424v22.994a2.427 2.427 0 0 0 2.424 2.424h21.708c.084 0 .166-.008.246-.02h8.618a2.428 2.428 0 0 0 2.424-2.426V12.493a2.428 2.428 0 0 0-2.424-2.425zM9.64 27.842V13.439h15.812a1.8 1.8 0 0 0 .246-.021H38.36v9.314H24.5a2.428 2.428 0 0 0-2.424 2.424v9.426H9.64v-6.74zm28.72 6.721h-8.23c-.083 0-.165.008-.246.02h-4.459v-8.5H38.36v8.48z"/></svg>