<svg xmlns="http://www.w3.org/2000/svg" width="48" height="48" xml:space="preserve"><path d="M21.569 29.113 29.56 24.5c.233-.135.349-.312.354-.488-.005-.177-.121-.354-.354-.488l-7.991-4.613c-.477-.275-.866-.05-.866.5v9.203c0 .549.39.775.866.499z"/><path d="M24 39.854a15.83 15.83 0 0 1-11.211-4.642 15.87 15.87 0 0 1-3.397-5.039C8.565 28.217 8.146 26.141 8.146 24s.419-4.217 1.246-6.172a15.827 15.827 0 0 1 3.397-5.038 15.773 15.773 0 0 1 5.04-3.396 15.957 15.957 0 0 1 12.344 0c1.891.8 3.586 1.942 5.039 3.397a15.793 15.793 0 0 1 3.396 5.037c.828 1.958 1.248 4.034 1.248 6.172s-.42 4.214-1.248 6.172a15.83 15.83 0 0 1-3.396 5.039A15.812 15.812 0 0 1 24 39.854zm0-28.308a12.421 12.421 0 0 0-8.808 3.649 12.383 12.383 0 0 0-3.646 8.806c0 1.684.329 3.314.977 4.848a12.497 12.497 0 0 0 6.629 6.628 12.544 12.544 0 0 0 9.694 0 12.394 12.394 0 0 0 3.959-2.668 12.424 12.424 0 0 0 3.648-8.808 12.421 12.421 0 0 0-3.648-8.806 12.38 12.38 0 0 0-3.958-2.67A12.37 12.37 0 0 0 24 11.546z"/></svg>