<?xml version="1.0" encoding="utf-8"?>
<!-- Generator: Adobe Illustrator 16.0.0, SVG Export Plug-In . SVG Version: 6.00 Build 0)  -->
<!DOCTYPE svg PUBLIC "-//W3C//DTD SVG 1.1//EN" "http://www.w3.org/Graphics/SVG/1.1/DTD/svg11.dtd">
<svg version="1.1" id="Layer_1" xmlns="http://www.w3.org/2000/svg" xmlns:xlink="http://www.w3.org/1999/xlink" x="0px" y="0px"
	 width="800px" height="800px" viewBox="0 0 800 800" enable-background="new 0 0 800 800" xml:space="preserve">
<g>
	<rect x="387.854" y="121.226" width="61.138" height="55.758"/>
	<path d="M387.818,550.709c0,30.685-2.183,64.193-41.647,64.193c-39.465,0-41.646-33.509-41.646-64.193V426.385h-61.388v132.778
		c0,30.378,1.25,60.447,24.748,83.302c19.713,19.407,50.734,26.304,78.287,26.304c27.562,0,58.563-6.897,78.287-26.304
		c23.481-22.855,24.747-52.924,24.747-83.302l-0.213-346.974h-61.138L387.818,550.709z"/>
	<polygon points="0.007,0 0.007,384.535 62.943,384.535 62.943,62.94 737.057,62.94 737.057,737.055 62.943,737.055 62.943,519.074 
		109.613,565.734 150.021,565.734 150.021,668.769 211.389,668.769 211.389,426.385 150.021,426.385 150.021,517.517 
		62.943,517.517 62.943,426.385 61.387,426.385 0.007,426.385 0.007,800 799.993,800 799.993,0 	"/>
	<polygon points="481.905,212.189 481.905,262.752 562.604,262.752 481.905,383.97 664.065,383.97 664.065,333.406 583.701,333.406 
		664.065,212.189 	"/>
	<polygon points="301.387,123.099 301.387,123.11 301.387,254.87 170.847,123.11 170.837,123.099 169.615,123.099 80.811,123.11 
		341.666,383.97 353.973,383.97 353.973,123.11 353.647,123.11 353.647,123.099 	"/>
	<path d="M590.997,490.935c-18.96,0-38.565,7.071-51.097,21.533v-86.083h-58.487v240.998H539.9V642.94h0.642
		c10.604,16.391,30.529,23.783,49.813,23.783c49.17,0,83.236-40.494,83.236-88.054C673.59,531.427,639.848,490.935,590.997,490.935z
		 M575.574,615.946c-23.784,0-37.603-16.068-37.603-36.958c0-20.243,13.819-37.274,37.603-37.274
		c23.781,0,37.598,17.031,37.598,37.274C613.171,599.878,599.354,615.946,575.574,615.946z"/>
</g>
</svg>
