<?xml version="1.0" encoding="UTF-8" standalone="no"?>
<!-- Generator: Adobe Illustrator 16.0.0, SVG Export Plug-In . SVG Version: 6.00 Build 0)  -->

<svg
   xmlns:dc="http://purl.org/dc/elements/1.1/"
   xmlns:cc="http://creativecommons.org/ns#"
   xmlns:rdf="http://www.w3.org/1999/02/22-rdf-syntax-ns#"
   xmlns:svg="http://www.w3.org/2000/svg"
   xmlns="http://www.w3.org/2000/svg"
   xmlns:sodipodi="http://sodipodi.sourceforge.net/DTD/sodipodi-0.dtd"
   xmlns:inkscape="http://www.inkscape.org/namespaces/inkscape"
   version="1.1"
   id="Layer_1"
   x="0px"
   y="0px"
   width="800px"
   height="237.402px"
   viewBox="0 0 800 237.402"
   enable-background="new 0 0 800 237.402"
   xml:space="preserve"
   sodipodi:docname="logo.svg"
   inkscape:version="0.92.3 (2405546, 2018-03-11)"><metadata
   id="metadata25"><rdf:RDF><cc:Work
       rdf:about=""><dc:format>image/svg+xml</dc:format><dc:type
         rdf:resource="http://purl.org/dc/dcmitype/StillImage" /></cc:Work></rdf:RDF></metadata><defs
   id="defs23" /><sodipodi:namedview
   pagecolor="#ffffff"
   bordercolor="#666666"
   borderopacity="1"
   objecttolerance="10"
   gridtolerance="10"
   guidetolerance="10"
   inkscape:pageopacity="0"
   inkscape:pageshadow="2"
   inkscape:window-width="1920"
   inkscape:window-height="1016"
   id="namedview21"
   showgrid="false"
   showguides="true"
   inkscape:guide-bbox="true"
   inkscape:zoom="1.2409724"
   inkscape:cx="537.04301"
   inkscape:cy="202.72721"
   inkscape:window-x="0"
   inkscape:window-y="27"
   inkscape:window-maximized="1"
   inkscape:current-layer="g18"><sodipodi:guide
     position="620.771,142.661"
     orientation="0,1"
     id="guide70"
     inkscape:locked="false" /><sodipodi:guide
     position="524.627,215.418"
     orientation="0,1"
     id="guide74"
     inkscape:locked="false" /></sodipodi:namedview>
<g
   id="g18">
	<polygon
   points="384.125,51.967 384.125,185.436 418.822,185.436 418.822,103.48 418.822,51.967  "
   id="polygon2" />
	<rect
   x="213.938"
   y="51.961"
   width="32.218"
   height="29.382"
   id="rect4" />
	<rect
   x="214.023"
   y="94.741"
   width="32.048"
   height="90.333"
   id="rect6" />
	<path
   d="M641.143,51.967v133.469h32.047v-13.393h0.352c5.811,8.98,16.729,13.031,27.295,13.031   c26.941,0,45.607-22.188,45.607-48.248c0-25.885-18.49-48.072-45.256-48.072c-10.389,0-21.131,3.875-27.998,11.799V51.967H641.143z    M692.736,116.576c13.031,0,20.602,9.333,20.602,20.426c0,11.445-7.57,20.25-20.602,20.25s-20.604-8.805-20.604-20.25   C672.133,125.909,679.705,116.576,692.736,116.576z"
   id="path8" />
	<polygon
   points="267.165,94.741 267.165,121.33 309.603,121.33 267.165,185.074 362.957,185.074 362.957,158.484 320.696,158.484    362.957,94.741  "
   id="polygon10" />
	<polygon
   points="166.416,51.961 166.416,51.967 166.416,119.382 99.624,51.967 99.619,51.961 98.995,51.961 53.557,51.967    187.025,185.436 193.321,185.436 193.321,51.967 193.155,51.967 193.155,51.961  "
   id="polygon12" />
	<path
   d="M 0,0 V 237.40234 H 448.91992 V 215.41797 H 21.984375 V 21.984375 c 273.362415,0 491.929695,0 756.031245,0 V 215.41797 H 503.60938 V 51.966797 h -34.68946 v 51.513673 h -50.09765 l 27.26171,27.25391 h 22.83594 V 237.40234 H 800 V 0 H 576.67383 Z M 524.62695,94.740234 V 146.1582 c 0,29.76 20.95532,38.91602 48.07032,38.91602 27.119,0 48.07421,-9.15602 48.07421,-38.91602 V 94.740234 h -32.04687 v 45.255856 c 0,11.445 -2.81834,19.54493 -16.02734,19.54493 -13.205,0 -16.02344,-8.09993 -16.02344,-19.54493 V 94.740234 Z"
   id="path14"
   inkscape:connector-curvature="0"
   sodipodi:nodetypes="cccccccccccccccccccccsssccssscc" />
	
</g>
</svg>