<?xml version="1.0" encoding="utf-8"?>
<!-- Generator: Adobe Illustrator 16.0.0, SVG Export Plug-In . SVG Version: 6.00 Build 0)  -->
<!DOCTYPE svg PUBLIC "-//W3C//DTD SVG 1.1//EN" "http://www.w3.org/Graphics/SVG/1.1/DTD/svg11.dtd">
<svg version="1.1" id="Layer_1" xmlns="http://www.w3.org/2000/svg" xmlns:xlink="http://www.w3.org/1999/xlink" x="0px" y="0px"
	 width="800px" height="800px" viewBox="0 0 800 800" enable-background="new 0 0 800 800" xml:space="preserve">
<g>
	<g>
		<rect x="416.884" y="123.878" width="62.969" height="57.426"/>
		<rect x="417.05" y="207.49" width="62.635" height="176.551"/>
		<polygon points="520.912,207.49 520.912,259.457 603.853,259.457 520.912,384.041 708.131,384.041 708.131,332.073 
			625.535,332.073 708.131,207.49 		"/>
		<polygon points="324.003,123.878 324.003,123.89 324.003,255.649 193.463,123.89 193.453,123.878 192.231,123.878 103.427,123.89 
			364.282,384.749 376.589,384.749 376.589,123.89 376.264,123.89 376.264,123.878 		"/>
	</g>
	<g>
		<polygon points="0,415.264 0,676.122 67.814,676.122 67.814,515.945 67.814,415.264 		"/>
		<path d="M502.327,415.264v260.858h62.634v-26.176h0.688c11.355,17.553,32.693,25.47,53.345,25.47
			c52.656,0,89.138-43.365,89.138-94.298c0-50.592-36.136-93.954-88.45-93.954c-20.305,0-41.299,7.572-54.72,23.06v-94.96H502.327z
			 M603.164,541.541c25.468,0,40.264,18.239,40.264,39.918c0,22.372-14.796,39.58-40.264,39.58c-25.47,0-40.269-17.208-40.269-39.58
			C562.896,559.78,577.694,541.541,603.164,541.541z"/>
		<path d="M274.604,599.356c0,58.164,40.954,76.06,93.95,76.06c53.002,0,93.958-17.896,93.958-76.06V498.865h-62.634v88.448
			c0,22.369-5.509,38.198-31.324,38.198c-25.81,0-31.316-15.829-31.316-38.198v-88.448h-62.634V599.356z"/>
		<polygon points="233.525,415.264 165.728,415.264 165.728,515.945 67.814,515.945 121.094,569.213 165.728,569.213 
			165.728,676.122 233.525,676.122 		"/>
	</g>
	<polygon points="0,0 0,385.264 68.155,385.264 68.155,68.146 731.854,68.146 731.854,731.854 68.155,731.854 68.155,706.122 
		0,706.122 0,800 800,800 800,0 	"/>
</g>
</svg>
