<svg xmlns="http://www.w3.org/2000/svg" width="48" height="48" xml:space="preserve"><path d="m15.375 24.392 6.95-6.951v1.956l.001 10.172A1.669 1.669 0 0 0 24 31.243c.925 0 1.676-.75 1.675-1.674V17.441l6.951 6.951c.327.327.755.49 1.184.49s.857-.163 1.185-.49a1.674 1.674 0 0 0 0-2.368l-9.279-9.28a2.43 2.43 0 0 0-3.43 0l-9.279 9.28a1.674 1.674 0 1 0 2.368 2.368zM33.811 32.858H21.612l-7.424.001a1.663 1.663 0 0 0-1.184.49 1.674 1.674 0 0 0 1.184 2.859H33.81c.462.001.88-.186 1.184-.49a1.674 1.674 0 0 0-1.183-2.86z"/></svg>